<svg xmlns="http://www.w3.org/2000/svg" viewBox="0 0 48 46">
  <path fill="#ffdd00" d="M25.95 44.94c-.67.84-2.02.37-2.02-.7v-10.3a2.26 2.26 0 0 0-2.27-2.26H10.29c-.92 0-1.46-1.04-.92-1.79l7.48-10.47c1.07-1.5 0-3.58-1.84-3.58H1.24c-.92 0-1.46-1.04-.92-1.79L10.01.47c.21-.3.56-.47.92-.47h28.9c.92 0 1.46 1.04.92 1.79l-7.48 10.47c-1.07 1.5 0 3.58 1.84 3.58h11.38c.94 0 1.47 1.09.89 1.83L25.95 44.94Z"/>
  <path fill="#fff8bf" d="M28.08 3.4H15.2L7.76 13.8h9.72c4.16 0 6.57 4.7 4.15 8.08l-4.55 6.38h5.72c2.82 0 5.11 2.29 5.11 5.1v2.6l13.95-17.73h-6.75c-4.16 0-6.57-4.7-4.15-8.08l4.82-6.75h-7.7Z" opacity=".35"/>
</svg>
